<svg version="1.1" id="Layer_1" xmlns="http://www.w3.org/2000/svg" xmlns:xlink="http://www.w3.org/1999/xlink" x="0px" y="0px"
	 width="100%" viewBox="0 0 1024 1024" enable-background="new 0 0 1024 1024" xml:space="preserve">
<path fill="#080807" opacity="1.000000" stroke="none" 
	d="
M480.000000,1025.000000 
	C320.000000,1025.000000 160.500000,1025.000000 1.000000,1025.000000 
	C1.000000,683.666687 1.000000,342.333344 1.000000,1.000000 
	C342.333344,1.000000 683.666687,1.000000 1025.000000,1.000000 
	C1025.000000,342.333344 1025.000000,683.666687 1025.000000,1025.000000 
	C843.500000,1025.000000 662.000000,1025.000000 480.000000,1025.000000 
M650.495361,266.998779 
	C556.021912,266.998779 461.548401,266.964874 367.075043,267.077209 
	C360.962402,267.084473 354.740540,267.684753 348.759216,268.924530 
	C328.379852,273.148743 311.482880,283.535492 297.555054,298.921875 
	C281.691528,316.446716 273.173004,337.122162 273.110443,360.621063 
	C272.845367,460.259338 273.012146,559.898682 272.989349,659.537659 
	C272.983093,686.838196 281.992554,710.300415 301.870544,729.431702 
	C320.476562,747.338684 342.489868,756.932434 368.336212,756.959961 
	C463.143097,757.061035 557.950195,756.930725 652.757080,757.047668 
	C677.086670,757.077698 699.136536,750.920837 717.979553,735.010681 
	C739.854126,716.540955 752.816895,693.359131 752.896179,664.406799 
	C753.167236,565.435120 753.018250,466.462128 752.955933,367.489685 
	C752.952087,361.351166 752.696594,355.163452 751.906433,349.083313 
	C748.362061,321.812103 734.669434,300.356232 712.768188,284.348694 
	C694.661072,271.114227 673.842407,265.991425 650.495361,266.998779 
z"/>
<path fill="#010000" opacity="1.000000" stroke="none" 
	d="
M650.994019,266.998779 
	C673.842407,265.991425 694.661072,271.114227 712.768188,284.348694 
	C734.669434,300.356232 748.362061,321.812103 751.906433,349.083313 
	C752.696594,355.163452 752.952087,361.351166 752.955933,367.489685 
	C753.018250,466.462128 753.167236,565.435120 752.896179,664.406799 
	C752.816895,693.359131 739.854126,716.540955 717.979553,735.010681 
	C699.136536,750.920837 677.086670,757.077698 652.757080,757.047668 
	C557.950195,756.930725 463.143097,757.061035 368.336212,756.959961 
	C342.489868,756.932434 320.476562,747.338684 301.870544,729.431702 
	C281.992554,710.300415 272.983093,686.838196 272.989349,659.537659 
	C273.012146,559.898682 272.845367,460.259338 273.110443,360.621063 
	C273.173004,337.122162 281.691528,316.446716 297.555054,298.921875 
	C311.482880,283.535492 328.379852,273.148743 348.759216,268.924530 
	C354.740540,267.684753 360.962402,267.084473 367.075043,267.077209 
	C461.548401,266.964874 556.021912,266.998779 650.994019,266.998779 
M599.740051,543.927734 
	C613.275879,540.591736 626.198853,535.882324 637.973022,526.983826 
	C676.180054,500.872528 690.114746,454.586700 679.230774,410.831940 
	C667.586060,364.018829 625.003418,330.939423 576.831116,330.910522 
	C504.028625,330.866882 431.226044,330.906616 358.423523,330.910858 
	C356.668610,330.910980 354.913666,330.910858 353.186279,330.910858 
	C353.186279,366.407166 353.186279,401.149323 353.186279,436.294464 
	C369.160278,436.294464 384.785645,436.294434 400.410980,436.294434 
	C415.931519,436.294434 431.452057,436.294464 446.972595,436.294464 
	C444.390289,437.110046 441.787720,437.534790 439.173676,437.870331 
	C417.191254,440.692047 397.892792,449.740723 381.498169,464.342834 
	C357.019379,486.145172 344.917297,513.594055 345.474579,546.648682 
	C345.892975,571.464539 345.527496,596.292847 345.646515,621.114990 
	C345.715149,635.421021 346.053253,649.725708 346.278992,664.387939 
	C346.278992,664.387939 346.574646,664.587463 346.574646,664.587463 
	C346.574646,664.587463 346.878296,664.400208 347.805054,664.632874 
	C384.963715,664.632874 422.122345,664.632874 459.650513,664.632874 
	C459.650513,657.786926 459.650513,651.349182 459.817841,644.319702 
	C459.761017,643.917847 459.704193,643.516052 459.819092,642.176514 
	C459.748077,633.418030 459.677032,624.659485 459.796936,615.093018 
	C459.736877,613.438538 459.676819,611.784119 459.790405,609.217957 
	C459.729980,606.144409 459.669586,603.070923 459.797424,599.078003 
	C459.797424,588.005676 459.797424,576.933289 459.797424,565.860962 
	C460.905273,567.072937 461.090363,568.332764 461.256622,569.595093 
	C468.415863,623.949524 512.138062,664.398560 564.610352,664.782104 
	C601.771484,665.053772 638.936218,664.831604 676.099365,664.815552 
	C677.554382,664.814941 679.009460,664.666077 680.686096,664.574158 
	C680.686096,625.573914 680.686096,586.876221 680.686096,547.719055 
	C647.614807,547.719055 614.925293,547.719055 581.169006,547.719055 
	C583.156494,546.865723 584.071289,546.472961 585.731323,546.231201 
	C586.477356,546.121216 587.223328,546.011230 588.461853,546.008240 
	C588.931702,545.850403 589.401611,545.692627 590.675964,545.614929 
	C591.447876,545.411621 592.219849,545.208313 593.636353,545.079468 
	C594.466736,544.876831 595.297058,544.674194 596.858337,544.462646 
	C597.560059,544.264526 598.261780,544.066467 599.740051,543.927734 
z"/>
<path fill="#FD6A1E" opacity="1.000000" stroke="none" 
	d="
M346.270050,664.031006 
	C346.053253,649.725708 345.715149,635.421021 345.646515,621.114990 
	C345.527496,596.292847 345.892975,571.464539 345.474579,546.648682 
	C344.917297,513.594055 357.019379,486.145172 381.498169,464.342834 
	C397.892792,449.740723 417.191254,440.692047 439.173676,437.870331 
	C441.787720,437.534790 444.390289,437.110046 446.972595,436.294464 
	C431.452057,436.294464 415.931519,436.294434 400.410980,436.294434 
	C384.785645,436.294434 369.160278,436.294464 353.186279,436.294464 
	C353.186279,401.149323 353.186279,366.407166 353.186279,330.910858 
	C354.913666,330.910858 356.668610,330.910980 358.423523,330.910858 
	C431.226044,330.906616 504.028625,330.866882 576.831116,330.910522 
	C625.003418,330.939423 667.586060,364.018829 679.230774,410.831940 
	C690.114746,454.586700 676.180054,500.872528 637.339844,526.882385 
	C635.529297,525.620850 634.306213,524.503174 633.182556,523.293213 
	C628.710693,518.477722 618.696716,518.797791 614.176514,523.525391 
	C612.194031,525.598816 609.486328,527.179138 606.831482,528.363953 
	C602.458008,530.315735 597.857788,531.758301 593.357178,533.426514 
	C589.463623,534.869629 585.674866,536.748108 581.665283,537.694397 
	C572.642151,539.823975 572.598083,539.637329 570.019165,530.630005 
	C569.982239,529.506775 570.031616,528.753418 570.433411,527.972412 
	C573.457886,527.034424 577.379761,526.924194 578.569519,525.065247 
	C582.269897,519.283508 583.351074,512.731934 579.996033,506.150299 
	C576.557617,499.405243 576.577820,499.330505 583.912109,496.469208 
	C584.839844,496.107300 585.764099,495.450256 586.697510,495.436279 
	C591.949036,495.357544 593.232788,492.530792 593.119507,487.698029 
	C592.998413,482.530731 594.001282,477.864349 599.118530,474.362366 
	C601.203003,472.935913 601.678284,468.133484 601.535645,464.927124 
	C601.468323,463.415833 598.400269,461.627655 596.356445,460.722137 
	C593.973938,459.666565 591.214478,459.479614 588.636597,458.842987 
	C583.888611,457.670380 580.549011,453.829926 580.040588,449.042267 
	C578.984741,439.100281 578.984802,439.100281 568.286194,436.182922 
	C536.867737,436.282104 505.894043,436.306946 474.920349,436.296234 
	C470.437408,436.294708 465.954498,436.122681 461.229004,436.095886 
	C460.674988,436.262848 460.362549,436.360260 460.056244,436.613831 
	C460.063354,436.773193 459.808990,436.965729 459.738403,437.076660 
	C459.563080,437.441284 459.571747,437.693085 459.776428,438.408661 
	C459.803101,458.582764 459.747223,478.291168 459.452332,498.250488 
	C458.143890,502.961700 456.480286,507.375702 456.128815,511.891846 
	C455.400482,521.250366 455.069550,530.666504 455.172638,540.052368 
	C455.227814,545.074585 456.765717,550.062988 457.187073,555.104065 
	C457.539398,559.319031 458.421295,564.072937 456.928009,567.709045 
	C455.121185,572.108887 454.799866,575.748901 456.297333,580.068481 
	C456.965607,581.996216 456.318359,584.339783 456.695496,586.416992 
	C457.522034,590.970032 458.621277,595.473633 459.609192,599.997375 
	C459.669586,603.070923 459.729980,606.144409 459.579712,609.977417 
	C459.447998,612.458313 459.527008,614.179626 459.606018,615.901001 
	C459.677032,624.659485 459.748077,633.418030 459.639709,642.814026 
	C459.523743,643.938171 459.587128,644.424744 459.650513,644.911377 
	C459.650513,651.349182 459.650513,657.786926 459.650513,664.632874 
	C422.122345,664.632874 384.963715,664.632874 347.248596,664.442383 
	C346.692108,664.251892 346.270050,664.031006 346.270050,664.031006 
z"/>
<path fill="#FD6A1E" opacity="1.000000" stroke="none" 
	d="
M459.703308,599.537720 
	C458.621277,595.473633 457.522034,590.970032 456.695496,586.416992 
	C456.318359,584.339783 456.965607,581.996216 456.297333,580.068481 
	C454.799866,575.748901 455.121185,572.108887 456.928009,567.709045 
	C458.421295,564.072937 457.539398,559.319031 457.187073,555.104065 
	C456.765717,550.062988 455.227814,545.074585 455.172638,540.052368 
	C455.069550,530.666504 455.400482,521.250366 456.128815,511.891846 
	C456.480286,507.375702 458.143890,502.961700 459.543427,498.711426 
	C459.873474,515.147766 459.873474,531.374146 459.873474,547.661255 
	C496.927948,547.661255 533.263977,547.661255 570.105347,547.661255 
	C570.105347,541.907898 570.105347,536.453918 570.105347,530.999939 
	C572.598083,539.637329 572.642151,539.823975 581.665283,537.694397 
	C585.674866,536.748108 589.463623,534.869629 593.357178,533.426514 
	C597.857788,531.758301 602.458008,530.315735 606.831482,528.363953 
	C609.486328,527.179138 612.194031,525.598816 614.176514,523.525391 
	C618.696716,518.797791 628.710693,518.477722 633.182556,523.293213 
	C634.306213,524.503174 635.529297,525.620850 637.017700,526.967712 
	C626.198853,535.882324 613.275879,540.591736 599.105713,543.761841 
	C597.690063,543.887878 596.908752,544.179749 596.127441,544.471558 
	C595.297058,544.674194 594.466736,544.876831 593.058350,544.881104 
	C591.610718,544.966736 590.741089,545.250793 589.871460,545.534851 
	C589.401611,545.692627 588.931702,545.850403 587.981079,545.806519 
	C586.662231,545.763184 585.824158,545.921692 584.986084,546.080139 
	C584.071289,546.472961 583.156494,546.865723 581.169006,547.719055 
	C614.925293,547.719055 647.614807,547.719055 680.686096,547.719055 
	C680.686096,586.876221 680.686096,625.573914 680.686096,664.574158 
	C679.009460,664.666077 677.554382,664.814941 676.099365,664.815552 
	C638.936218,664.831604 601.771484,665.053772 564.610352,664.782104 
	C512.138062,664.398560 468.415863,623.949524 461.256622,569.595093 
	C461.090363,568.332764 460.905273,567.072937 459.797424,565.860962 
	C459.797424,576.933289 459.797424,588.005676 459.703308,599.537720 
z"/>
<path fill="#FD6A1E" opacity="1.000000" stroke="none" 
	d="
M459.701477,615.497009 
	C459.527008,614.179626 459.447998,612.458313 459.492859,610.433289 
	C459.676819,611.784119 459.736877,613.438538 459.701477,615.497009 
z"/>
<path fill="#FD6A1E" opacity="1.000000" stroke="none" 
	d="
M596.492920,544.467102 
	C596.908752,544.179749 597.690063,543.887878 598.717407,543.732178 
	C598.261780,544.066467 597.560059,544.264526 596.492920,544.467102 
z"/>
<path fill="#FD6A1E" opacity="1.000000" stroke="none" 
	d="
M590.273682,545.574890 
	C590.741089,545.250793 591.610718,544.966736 592.736084,544.843872 
	C592.219849,545.208313 591.447876,545.411621 590.273682,545.574890 
z"/>
<path fill="#FD6A1E" opacity="1.000000" stroke="none" 
	d="
M585.358704,546.155640 
	C585.824158,545.921692 586.662231,545.763184 587.734863,545.752991 
	C587.223328,546.011230 586.477356,546.121216 585.358704,546.155640 
z"/>
<path fill="#FD6A1E" opacity="1.000000" stroke="none" 
	d="
M459.734192,644.615540 
	C459.587128,644.424744 459.523743,643.938171 459.553894,643.282837 
	C459.704193,643.516052 459.761017,643.917847 459.734192,644.615540 
z"/>
<path fill="#FD6A1E" opacity="1.000000" stroke="none" 
	d="
M346.274536,664.209473 
	C346.270050,664.031006 346.692108,664.251892 346.785217,664.326050 
	C346.878296,664.400208 346.574646,664.587463 346.574646,664.587463 
	C346.574646,664.587463 346.278992,664.387939 346.274536,664.209473 
z"/>
<path fill="#020100" opacity="1.000000" stroke="none" 
	d="
M570.019165,530.630005 
	C570.105347,536.453918 570.105347,541.907898 570.105347,547.661255 
	C533.263977,547.661255 496.927948,547.661255 459.873474,547.661255 
	C459.873474,531.374146 459.873474,515.147766 459.782410,498.460480 
	C459.747223,478.291168 459.803101,458.582764 459.860870,438.171143 
	C459.844849,437.300537 459.826935,437.133148 459.808990,436.965729 
	C459.808990,436.965729 460.063354,436.773193 460.299622,436.580017 
	C460.847809,436.267761 461.159698,436.148651 461.471588,436.029541 
	C465.954498,436.122681 470.437408,436.294708 474.920349,436.296234 
	C505.894043,436.306946 536.867737,436.282104 568.568481,436.548859 
	C569.548706,443.557709 569.801941,450.286346 569.965637,457.460114 
	C569.937988,460.930389 569.999939,463.955566 569.978394,467.443115 
	C569.950684,473.274231 570.006470,478.643036 569.976868,484.420349 
	C569.946167,486.213928 570.000793,487.598969 569.967102,489.380707 
	C569.934265,490.854523 569.989746,491.931641 569.957153,493.400696 
	C569.930237,494.856659 569.991394,495.920685 569.968689,497.429932 
	C569.945312,500.588013 570.005737,503.300842 569.979858,506.442810 
	C569.949280,508.908905 570.004944,510.945923 569.976257,513.443542 
	C569.954956,518.602783 570.017944,523.301453 570.080933,528.000061 
	C570.031616,528.753418 569.982239,529.506775 570.019165,530.630005 
z"/>
<path fill="#FD6A1E" opacity="1.000000" stroke="none" 
	d="
M570.055176,457.015015 
	C569.801941,450.286346 569.548706,443.557709 569.013184,436.463135 
	C578.984802,439.100281 578.984741,439.100281 580.040588,449.042267 
	C580.549011,453.829926 583.888611,457.670380 588.636597,458.842987 
	C591.214478,459.479614 593.973938,459.666565 596.356445,460.722137 
	C598.400269,461.627655 601.468323,463.415833 601.535645,464.927124 
	C601.678284,468.133484 601.203003,472.935913 599.118530,474.362366 
	C594.001282,477.864349 592.998413,482.530731 593.119507,487.698029 
	C593.232788,492.530792 591.949036,495.357544 586.697510,495.436279 
	C585.764099,495.450256 584.839844,496.107300 583.912109,496.469208 
	C576.577820,499.330505 576.557617,499.405243 579.996033,506.150299 
	C583.351074,512.731934 582.269897,519.283508 578.569519,525.065247 
	C577.379761,526.924194 573.457886,527.034424 570.433411,527.972412 
	C570.017944,523.301453 569.954956,518.602783 570.157104,513.126221 
	C570.303528,510.236786 570.184875,508.125244 570.066162,506.013702 
	C570.005737,503.300842 569.945312,500.588013 570.138062,497.170105 
	C570.275879,495.312988 570.160583,494.160858 570.045227,493.008759 
	C569.989746,491.931641 569.934265,490.854523 570.142334,489.096802 
	C570.291321,486.948090 570.176758,485.479950 570.062256,484.011810 
	C570.006470,478.643036 569.950684,473.274231 570.165161,467.098175 
	C570.308655,463.198944 570.181946,460.106964 570.055176,457.015015 
M572.969910,446.720978 
	C572.453735,447.293182 571.937561,447.865387 571.421326,448.437561 
	C571.800415,448.657654 572.179504,448.877716 572.558594,449.097809 
	C572.824768,448.430481 573.091003,447.763184 572.969910,446.720978 
z"/>
<path fill="#FD6A1E" opacity="1.000000" stroke="none" 
	d="
M459.738403,437.076660 
	C459.826935,437.133148 459.844849,437.300537 459.778290,437.705444 
	C459.571747,437.693085 459.563080,437.441284 459.738403,437.076660 
z"/>
<path fill="#FD6A1E" opacity="1.000000" stroke="none" 
	d="
M461.229004,436.095886 
	C461.159698,436.148651 460.847809,436.267761 460.292542,436.420685 
	C460.362549,436.360260 460.674988,436.262848 461.229004,436.095886 
z"/>
<path fill="#FD6A1E" opacity="1.000000" stroke="none" 
	d="
M569.965698,457.460114 
	C570.181946,460.106964 570.308655,463.198944 570.248657,466.635803 
	C569.999939,463.955566 569.937988,460.930389 569.965698,457.460114 
z"/>
<path fill="#FD6A1E" opacity="1.000000" stroke="none" 
	d="
M569.979858,506.442810 
	C570.184875,508.125244 570.303528,510.236786 570.241333,512.665649 
	C570.004944,510.945923 569.949280,508.908905 569.979858,506.442810 
z"/>
<path fill="#FD6A1E" opacity="1.000000" stroke="none" 
	d="
M569.976807,484.420349 
	C570.176758,485.479950 570.291321,486.948090 570.230652,488.700134 
	C570.000793,487.598969 569.946167,486.213928 569.976807,484.420349 
z"/>
<path fill="#FD6A1E" opacity="1.000000" stroke="none" 
	d="
M569.957153,493.400696 
	C570.160583,494.160858 570.275879,495.312988 570.221863,496.724915 
	C569.991394,495.920685 569.930237,494.856659 569.957153,493.400696 
z"/>
<path fill="#FD6A1E" opacity="1.000000" stroke="none" 
	d="
M573.163574,446.908447 
	C573.091003,447.763184 572.824768,448.430481 572.558594,449.097809 
	C572.179504,448.877716 571.800415,448.657654 571.421326,448.437561 
	C571.937561,447.865387 572.453735,447.293182 573.163574,446.908447 
z"/>
</svg>