<svg version="1.1" id="Layer_1" xmlns="http://www.w3.org/2000/svg" xmlns:xlink="http://www.w3.org/1999/xlink" x="0px" y="0px"
	 width="100%" viewBox="0 0 1536 1024" enable-background="new 0 0 1536 1024" xml:space="preserve">
<path fill="#090909" opacity="1.000000" stroke="none" 
	d="
M976.000000,1025.000000 
	C650.666687,1025.000000 325.833344,1025.000000 1.000000,1025.000000 
	C1.000000,683.666687 1.000000,342.333344 1.000000,1.000000 
	C513.000000,1.000000 1025.000000,1.000000 1537.000000,1.000000 
	C1537.000000,342.333344 1537.000000,683.666687 1537.000000,1025.000000 
	C1350.166626,1025.000000 1163.333374,1025.000000 976.000000,1025.000000 
M536.606384,536.185852 
	C534.033142,536.185852 531.459961,536.185852 528.886719,536.185852 
	C529.588318,535.200012 530.349060,535.029297 531.114990,534.886902 
	C550.860535,531.216675 567.816406,522.546204 581.636597,507.688293 
	C613.058899,473.906555 606.220886,416.465363 567.760010,391.063690 
	C550.101196,379.400909 530.455566,375.418884 509.814575,375.365875 
	C458.487274,375.234100 407.159302,375.367676 355.831604,375.394501 
	C354.046234,375.395447 352.260864,375.394623 350.208801,375.394623 
	C350.208801,402.365326 350.208801,428.776917 350.208801,455.847015 
	C373.989960,455.847015 397.521942,455.847015 422.062378,455.847015 
	C413.844482,458.471466 406.470734,460.111694 399.700012,463.112518 
	C370.613190,476.004150 352.105072,497.562805 350.458405,530.083069 
	C349.069550,557.511963 350.003540,585.058533 349.925171,612.553101 
	C349.923401,613.179565 350.110718,613.806580 350.249237,614.682251 
	C378.138885,614.682251 405.862122,614.682251 434.065613,614.682251 
	C434.065613,592.263794 434.065613,570.125122 434.065613,547.986450 
	C435.302124,549.630737 435.737213,551.355774 436.156219,553.084839 
	C444.870331,589.045044 474.726501,614.237427 511.812164,615.435669 
	C540.944458,616.376953 570.123779,615.867981 599.282227,615.987366 
	C599.914185,615.989929 600.546997,615.800049 601.413086,615.662964 
	C601.413086,589.157532 601.413086,562.787048 601.413086,536.165344 
	C579.866699,536.165344 558.721863,536.165344 536.606384,536.185852 
M894.004028,539.453430 
	C894.004028,542.857178 894.004028,546.260925 894.004028,550.873474 
	C883.911255,536.416077 874.563599,522.973145 865.124939,509.594513 
	C864.265442,508.376312 862.892517,506.831787 861.635498,506.710663 
	C857.737366,506.335022 853.780090,506.573273 849.587524,506.573273 
	C849.587524,529.301758 849.587524,551.382812 849.587524,573.749390 
	C854.024353,573.749390 858.251099,573.749390 863.090210,573.749390 
	C863.090210,559.194336 863.090210,544.769409 863.090210,528.832336 
	C873.135376,543.630615 882.249878,557.117798 891.461487,570.538452 
	C892.412903,571.924683 893.845947,573.772095 895.221436,573.926453 
	C899.263000,574.380005 903.388245,574.088135 907.680176,574.088135 
	C907.680176,551.304382 907.680176,529.206299 907.680176,506.780731 
	C903.223083,506.780731 898.820679,506.780731 894.014893,506.780731 
	C894.014893,517.527222 894.014893,527.997314 894.004028,539.453430 
M687.993347,444.280304 
	C691.349426,450.971344 694.629883,457.702393 698.127930,464.318359 
	C698.796326,465.582458 700.263245,467.180847 701.464600,467.272217 
	C706.031860,467.619568 710.641296,467.412231 715.780579,467.412231 
	C710.459167,457.888519 705.572327,449.142517 700.713806,440.447357 
	C701.333008,439.989471 701.585327,439.771271 701.866150,439.599762 
	C711.879211,433.483521 715.034851,426.662598 712.853577,415.838348 
	C711.137573,407.323181 704.967896,402.138092 694.093689,400.933502 
	C687.674011,400.222351 681.159424,400.313568 674.684631,400.173340 
	C669.596436,400.063171 664.503906,400.151215 659.255127,400.151215 
	C659.255127,422.940826 659.255127,445.026917 659.255127,467.387054 
	C663.901733,467.387054 668.328491,467.387054 673.359619,467.387054 
	C673.359619,458.957367 673.359619,450.585724 673.359619,441.958282 
	C675.941345,441.958282 677.949524,441.759277 679.901001,442.007294 
	C682.497803,442.337311 685.050415,443.015411 687.993347,444.280304 
M980.867554,593.664856 
	C982.524292,593.800354 984.179077,594.015808 985.838196,594.057983 
	C994.570801,594.280273 1003.176331,593.894775 1010.672241,588.530579 
	C1015.381775,585.160522 1016.888367,580.563721 1016.018921,574.974182 
	C1015.160095,569.453125 1011.464355,566.594299 1006.535034,565.243591 
	C1003.523376,564.418335 1000.320129,564.200134 997.183838,563.943909 
	C992.710632,563.578552 988.197937,563.607239 983.751953,563.061462 
	C982.627930,562.923462 981.693054,561.245117 980.671265,560.274597 
	C981.970764,559.469299 983.219666,558.094482 984.579956,557.973694 
	C987.701721,557.696350 990.899292,558.306885 994.027649,558.063354 
	C1002.756165,557.383850 1009.319946,552.524597 1010.541382,545.338379 
	C1011.117798,541.947388 1010.308655,538.320984 1010.111084,534.487183 
	C1011.723755,534.155029 1013.618713,533.764709 1015.480713,533.381226 
	C1015.480713,529.735229 1015.480713,526.321228 1015.480713,521.418213 
	C1011.536621,523.321838 1008.469666,525.001221 1005.242432,526.273743 
	C1003.688416,526.886475 1001.800537,527.040405 1000.118530,526.868042 
	C994.913513,526.334595 989.701477,524.803589 984.553955,525.035034 
	C977.538818,525.350403 971.556152,528.595276 969.240540,535.822083 
	C966.909241,543.097534 968.016968,549.665588 975.271851,553.950439 
	C967.130554,561.602478 966.646240,564.671326 972.346375,571.644775 
	C967.717163,573.304626 965.340332,576.526001 965.545959,581.499695 
	C965.761414,586.710815 969.001343,589.608093 973.405212,591.428162 
	C975.535400,592.308533 977.853088,592.735291 980.867554,593.664856 
M705.916504,567.404846 
	C715.516602,554.955566 711.598999,541.240295 696.772156,536.075745 
	C690.524719,533.899597 684.064270,532.339600 677.722473,530.427368 
	C674.364075,529.414795 671.616516,527.071594 672.743164,523.616882 
	C673.497986,521.302307 676.258850,518.777100 678.652283,518.018188 
	C687.018127,515.365784 693.793335,518.656982 699.066345,525.408508 
	C702.388062,522.587524 705.408020,520.022766 708.377747,517.500671 
	C708.216797,517.009583 708.165771,516.663208 707.998413,516.387390 
	C707.741943,515.965027 707.428894,515.570374 707.099365,515.199951 
	C698.559509,505.598938 687.631042,503.892517 675.689087,505.873108 
	C665.361328,507.586029 658.952515,514.155518 658.189514,523.498169 
	C657.406189,533.091125 661.832581,539.405090 672.356873,543.086975 
	C678.147217,545.112610 684.123291,546.601196 689.972961,548.465637 
	C693.486389,549.585449 696.446655,551.403320 696.157959,555.777832 
	C695.875122,560.065125 692.834290,561.727112 689.207947,562.449646 
	C679.381897,564.407471 670.820496,562.309998 664.446411,553.993713 
	C661.262512,557.015015 658.272766,559.852051 655.291687,562.680908 
	C667.641907,577.419250 691.912720,579.906311 705.916504,567.404846 
M975.354431,419.984467 
	C962.831299,415.574371 948.980042,418.833069 942.198303,427.963226 
	C944.807007,430.188995 947.428711,432.425842 950.075806,434.684357 
	C955.418945,430.095673 961.060913,426.744354 967.866638,429.837860 
	C969.755188,430.696320 970.572693,433.911011 972.306824,436.737823 
	C969.961426,436.959564 969.122742,436.935028 968.338257,437.129364 
	C961.614136,438.795013 954.627441,439.823669 948.260437,442.386932 
	C942.083557,444.873596 939.789368,451.166351 940.987915,457.827545 
	C941.942200,463.131134 946.184387,466.987427 952.258179,468.333771 
	C959.679199,469.978729 965.851685,467.241089 971.638000,462.731537 
	C972.108582,464.446686 972.485291,465.819580 972.863159,467.196869 
	C977.400818,467.196869 981.666443,467.196869 984.752991,467.196869 
	C984.752991,455.877380 984.903076,444.814392 984.693481,433.758209 
	C984.578247,427.678619 981.744324,422.975098 975.354431,419.984467 
M758.321655,534.286560 
	C756.769897,532.573975 755.432129,530.583740 753.630371,529.195557 
	C744.546143,522.196167 730.604675,523.123962 722.501648,531.105652 
	C714.436951,539.049622 712.972595,556.048584 719.548767,565.384949 
	C728.725037,578.412781 749.500061,578.822876 761.407043,566.156006 
	C759.145020,563.575134 756.879211,560.990051 754.623230,558.416138 
	C741.565430,568.155090 731.472107,566.256897 729.415894,553.276733 
	C740.211487,553.276733 750.936951,553.276733 763.215637,553.276733 
	C761.591248,546.581116 760.173828,540.738464 758.321655,534.286560 
M769.849304,566.527649 
	C772.638062,569.184570 774.995544,573.148987 778.301086,574.239258 
	C786.359436,576.897339 793.949646,574.712097 800.316040,567.698303 
	C800.634216,570.394775 800.824890,572.010559 801.031738,573.763367 
	C805.427551,573.763367 809.659485,573.763367 813.814331,573.763367 
	C813.814331,557.668457 813.814331,541.876038 813.814331,526.124756 
	C809.202087,526.124756 804.823059,526.124756 800.317078,526.124756 
	C800.317078,535.189087 800.315430,543.849609 800.317627,552.510193 
	C800.319214,558.733521 795.554565,563.752075 789.576538,563.817688 
	C784.437866,563.874084 782.058655,560.493103 782.059570,553.141296 
	C782.060730,544.033264 782.059814,534.925293 782.059814,526.078613 
	C777.263855,526.078613 773.010620,526.078613 768.360046,526.078613 
	C768.360046,532.274170 768.198547,538.106812 768.400940,543.926758 
	C768.654358,551.215698 769.206604,558.494263 769.849304,566.527649 
M1183.546387,572.077454 
	C1186.410034,569.354614 1189.936768,567.058411 1192.014160,563.829773 
	C1198.495605,553.756470 1196.830322,539.876343 1188.712891,531.514038 
	C1181.220703,523.796021 1167.429199,522.125916 1157.757080,527.765503 
	C1147.724854,533.614990 1143.186646,545.707520 1146.546387,557.637817 
	C1150.856689,572.943665 1166.672729,579.386292 1183.546387,572.077454 
M942.969543,524.710571 
	C929.743835,524.029114 920.601807,530.033264 917.411621,541.496155 
	C913.761230,554.612549 918.379272,567.156494 928.847229,572.558655 
	C939.695068,578.156921 954.388977,575.270264 961.736450,566.610413 
	C959.387146,564.006836 957.086426,561.457031 954.769165,558.888916 
	C949.669739,563.536438 943.875366,566.076355 937.071289,563.483154 
	C932.796387,561.853760 930.303650,558.488525 930.307434,553.061340 
	C941.149353,553.061340 951.713013,553.061340 962.224487,553.061340 
	C963.268188,536.268372 956.935669,526.776550 942.969543,524.710571 
M1034.781982,526.112427 
	C1022.996582,531.747620 1017.517456,541.341980 1019.273438,553.269287 
	C1021.147400,565.998352 1027.943970,572.952576 1040.389404,574.874878 
	C1058.206543,577.626892 1072.284058,563.207458 1068.982910,545.586853 
	C1065.938354,529.336243 1053.386841,521.942200 1034.781982,526.112427 
M852.035278,465.616577 
	C863.704956,457.859711 867.662170,443.506409 861.430115,431.540497 
	C855.335876,419.839294 840.902100,414.900665 828.355530,420.223724 
	C817.098633,424.999603 811.179871,439.054321 815.051270,451.815674 
	C819.543030,466.621307 835.103943,472.688171 852.035278,465.616577 
M756.448975,446.940399 
	C759.208191,446.940399 761.967346,446.940399 764.882751,446.940399 
	C764.882751,444.375366 765.005798,442.384369 764.863464,440.412567 
	C763.662842,423.780426 749.454346,414.191895 734.305786,419.752869 
	C724.319946,423.418640 718.226501,432.760895 718.245361,444.376068 
	C718.262695,454.999847 724.330200,464.046661 733.614685,467.292053 
	C744.673645,471.157715 757.484375,468.002075 764.496338,459.622284 
	C762.018738,457.278198 759.540039,454.933105 757.095398,452.620239 
	C750.341736,458.629944 744.596191,460.023376 738.763000,457.056458 
	C734.841187,455.061707 732.363831,452.064575 732.748169,446.937195 
	C740.488342,446.937195 747.974243,446.937195 756.448975,446.940399 
M793.391113,458.229156 
	C785.856628,460.258789 779.956787,456.934814 775.436584,452.873108 
	C772.408691,455.563232 769.692261,457.976685 766.834045,460.516083 
	C776.283630,468.473389 786.922607,470.647308 798.591187,467.257843 
	C805.789917,465.166809 810.012146,459.586151 810.004395,453.171143 
	C809.996460,446.559814 806.516785,442.408600 798.668884,439.890900 
	C794.403931,438.522675 789.992249,437.569214 785.823486,435.968353 
	C784.432434,435.434143 782.719360,433.448608 782.751587,432.166656 
	C782.781494,430.976349 784.765259,429.259674 786.206909,428.821198 
	C788.150330,428.230133 790.553955,428.139191 792.481079,428.735413 
	C795.706726,429.733490 798.711792,431.444519 801.204956,432.580078 
	C803.510620,430.308411 805.692139,428.159058 807.863525,426.019684 
	C800.540771,418.434998 789.660095,415.981262 779.675720,419.796234 
	C772.823486,422.414459 769.503662,426.983795 769.601135,433.663025 
	C769.697815,440.289459 772.783386,444.447357 779.803040,446.767975 
	C784.062256,448.176025 788.540588,448.931213 792.775391,450.398407 
	C794.422058,450.968933 796.297363,452.458038 796.861084,453.976837 
	C797.192505,454.869781 795.151306,456.643433 793.391113,458.229156 
M1110.221069,541.520874 
	C1113.009033,539.797546 1115.796997,538.074158 1118.452393,536.432678 
	C1115.605469,527.170959 1102.835205,522.977661 1093.024536,524.945496 
	C1082.479126,527.060669 1074.950195,535.490540 1073.961304,546.999573 
	C1072.915283,559.173950 1078.777710,569.830872 1088.501343,573.431641 
	C1100.225586,577.773254 1112.389648,574.329895 1119.280273,564.485901 
	C1116.333862,562.186646 1113.373169,559.876282 1110.232056,557.425171 
	C1109.566284,558.203247 1109.158569,558.678528 1108.751953,559.154724 
	C1105.454224,563.016235 1101.377197,564.857849 1096.339966,563.450378 
	C1091.263184,562.031860 1088.659790,558.273682 1088.100098,553.243713 
	C1087.772095,550.295776 1087.624512,547.164001 1088.267090,544.311157 
	C1089.175171,540.279846 1091.534912,537.024109 1095.931274,535.920227 
	C1100.373291,534.804749 1104.117676,535.992065 1107.198730,539.363098 
	C1107.969238,540.206055 1108.785767,541.007080 1110.221069,541.520874 
M923.461975,463.139313 
	C928.940063,448.722260 934.418152,434.305206 940.058716,419.460571 
	C935.137512,419.460571 930.726135,419.460571 926.120056,419.460571 
	C922.561523,429.833740 918.959290,440.334412 915.356995,450.835052 
	C914.913147,450.752380 914.469299,450.669678 914.025391,450.587006 
	C910.507751,440.110138 906.990173,429.633270 903.602600,419.543823 
	C898.715271,419.543823 894.350708,419.543823 889.567505,419.543823 
	C894.470581,432.492279 899.201904,444.893188 903.861267,457.321106 
	C907.704712,467.572632 907.668579,467.427460 918.452209,467.532745 
	C921.462708,467.562134 922.696411,466.504730 923.461975,463.139313 
M884.868774,448.499390 
	C884.868774,432.392609 884.868774,416.285858 884.868774,399.945740 
	C880.152710,399.945740 875.763611,399.945740 871.262207,399.945740 
	C871.262207,422.521667 871.262207,444.755157 871.262207,467.213745 
	C875.834839,467.213745 880.229065,467.213745 884.872803,467.213745 
	C884.872803,461.106506 884.872803,455.302734 884.868774,448.499390 
M1138.342651,545.500488 
	C1138.342651,538.911987 1138.342651,532.323486 1138.342651,525.955383 
	C1133.451050,525.955383 1129.348999,525.955383 1125.027100,525.955383 
	C1125.027100,542.067322 1125.027100,557.811401 1125.027100,573.778381 
	C1129.483765,573.778381 1133.687500,573.778381 1138.338501,573.778381 
	C1138.338501,564.457703 1138.338501,555.479065 1138.342651,545.500488 
M1055.400024,511.888824 
	C1057.119507,510.380341 1058.838989,508.871887 1060.545288,507.374878 
	C1057.161011,502.476715 1049.855469,501.154785 1046.973145,504.916992 
	C1043.503052,509.446442 1040.176758,514.086121 1036.796143,518.667236 
	C1044.474243,521.244629 1050.260986,518.460266 1055.400024,511.888824 
M1124.307739,517.267517 
	C1128.443726,517.753906 1132.646118,518.819946 1136.673462,518.358398 
	C1137.818359,518.227112 1139.031250,513.668640 1139.117920,511.103516 
	C1139.175049,509.411896 1137.653442,506.639832 1136.188721,506.093353 
	C1127.687744,502.921539 1123.247681,506.512756 1124.030029,515.471802 
	C1124.058960,515.803589 1124.113037,516.133057 1124.307739,517.267517 
z"/>
<path fill="#F06A22" opacity="1.000000" stroke="none" 
	d="
M537.091675,536.175598 
	C558.721863,536.165344 579.866699,536.165344 601.413086,536.165344 
	C601.413086,562.787048 601.413086,589.157532 601.413086,615.662964 
	C600.546997,615.800049 599.914185,615.989929 599.282227,615.987366 
	C570.123779,615.867981 540.944458,616.376953 511.812164,615.435669 
	C474.726501,614.237427 444.870331,589.045044 436.156219,553.084839 
	C435.737213,551.355774 435.302124,549.630737 434.065613,547.986450 
	C434.065613,570.125122 434.065613,592.263794 434.065613,614.682251 
	C405.862122,614.682251 378.138885,614.682251 350.249237,614.682251 
	C350.110718,613.806580 349.923401,613.179565 349.925171,612.553101 
	C350.003540,585.058533 349.069550,557.511963 350.458405,530.083069 
	C352.105072,497.562805 370.613190,476.004150 399.700012,463.112518 
	C406.470734,460.111694 413.844482,458.471466 422.062378,455.847015 
	C397.521942,455.847015 373.989960,455.847015 350.208801,455.847015 
	C350.208801,428.776917 350.208801,402.365326 350.208801,375.394623 
	C352.260864,375.394623 354.046234,375.395447 355.831604,375.394501 
	C407.159302,375.367676 458.487274,375.234100 509.814575,375.365875 
	C530.455566,375.418884 550.101196,379.400909 567.760010,391.063690 
	C606.220886,416.465363 613.058899,473.906555 581.636597,507.688293 
	C567.816406,522.546204 550.860535,531.216675 531.114990,534.886902 
	C530.349060,535.029297 529.588318,535.200012 528.886719,536.185852 
	C531.459961,536.185852 534.033142,536.185852 537.091675,536.175598 
M517.231873,515.499878 
	C517.231873,495.758179 517.231873,476.016510 517.231873,456.170837 
	C489.197510,456.170837 461.851410,456.170837 434.399841,456.170837 
	C434.399841,482.942413 434.399841,509.311768 434.399841,535.755920 
	C462.157074,535.755920 489.527313,535.755920 517.230469,535.755920 
	C517.230469,529.106018 517.230469,522.802856 517.231873,515.499878 
z"/>
<path fill="#F7F7F7" opacity="1.000000" stroke="none" 
	d="
M894.009460,538.960388 
	C894.014893,527.997314 894.014893,517.527222 894.014893,506.780731 
	C898.820679,506.780731 903.223083,506.780731 907.680176,506.780731 
	C907.680176,529.206299 907.680176,551.304382 907.680176,574.088135 
	C903.388245,574.088135 899.263000,574.380005 895.221436,573.926453 
	C893.845947,573.772095 892.412903,571.924683 891.461487,570.538452 
	C882.249878,557.117798 873.135376,543.630615 863.090210,528.832336 
	C863.090210,544.769409 863.090210,559.194336 863.090210,573.749390 
	C858.251099,573.749390 854.024353,573.749390 849.587524,573.749390 
	C849.587524,551.382812 849.587524,529.301758 849.587524,506.573273 
	C853.780090,506.573273 857.737366,506.335022 861.635498,506.710663 
	C862.892517,506.831787 864.265442,508.376312 865.124939,509.594513 
	C874.563599,522.973145 883.911255,536.416077 894.004028,550.873474 
	C894.004028,546.260925 894.004028,542.857178 894.009460,538.960388 
z"/>
<path fill="#F8F7F8" opacity="1.000000" stroke="none" 
	d="
M687.807678,443.912140 
	C685.050415,443.015411 682.497803,442.337311 679.901001,442.007294 
	C677.949524,441.759277 675.941345,441.958282 673.359619,441.958282 
	C673.359619,450.585724 673.359619,458.957367 673.359619,467.387054 
	C668.328491,467.387054 663.901733,467.387054 659.255127,467.387054 
	C659.255127,445.026917 659.255127,422.940826 659.255127,400.151215 
	C664.503906,400.151215 669.596436,400.063171 674.684631,400.173340 
	C681.159424,400.313568 687.674011,400.222351 694.093689,400.933502 
	C704.967896,402.138092 711.137573,407.323181 712.853577,415.838348 
	C715.034851,426.662598 711.879211,433.483521 701.866150,439.599762 
	C701.585327,439.771271 701.333008,439.989471 700.713806,440.447357 
	C705.572327,449.142517 710.459167,457.888519 715.780579,467.412231 
	C710.641296,467.412231 706.031860,467.619568 701.464600,467.272217 
	C700.263245,467.180847 698.796326,465.582458 698.127930,464.318359 
	C694.629883,457.702393 691.349426,450.971344 687.807678,443.912140 
M673.201843,425.274231 
	C673.201843,426.884705 673.201843,428.495148 673.201843,430.278809 
	C679.614868,430.278809 685.590149,430.637054 691.498047,430.160065 
	C695.853760,429.808380 698.802979,427.125549 699.038025,422.313507 
	C699.256165,417.847229 697.733398,413.889648 693.161865,413.190399 
	C686.721008,412.205261 680.111816,412.320099 673.197815,411.944122 
	C673.197815,416.708618 673.197815,420.517365 673.201843,425.274231 
z"/>
<path fill="#F6F6F6" opacity="1.000000" stroke="none" 
	d="
M980.476685,593.516113 
	C977.853088,592.735291 975.535400,592.308533 973.405212,591.428162 
	C969.001343,589.608093 965.761414,586.710815 965.545959,581.499695 
	C965.340332,576.526001 967.717163,573.304626 972.346375,571.644775 
	C966.646240,564.671326 967.130554,561.602478 975.271851,553.950439 
	C968.016968,549.665588 966.909241,543.097534 969.240540,535.822083 
	C971.556152,528.595276 977.538818,525.350403 984.553955,525.035034 
	C989.701477,524.803589 994.913513,526.334595 1000.118530,526.868042 
	C1001.800537,527.040405 1003.688416,526.886475 1005.242432,526.273743 
	C1008.469666,525.001221 1011.536621,523.321838 1015.480713,521.418213 
	C1015.480713,526.321228 1015.480713,529.735229 1015.480713,533.381226 
	C1013.618713,533.764709 1011.723755,534.155029 1010.111084,534.487183 
	C1010.308655,538.320984 1011.117798,541.947388 1010.541382,545.338379 
	C1009.319946,552.524597 1002.756165,557.383850 994.027649,558.063354 
	C990.899292,558.306885 987.701721,557.696350 984.579956,557.973694 
	C983.219666,558.094482 981.970764,559.469299 980.671265,560.274536 
	C981.693054,561.245117 982.627930,562.923462 983.751953,563.061462 
	C988.197937,563.607239 992.710632,563.578552 997.183838,563.943909 
	C1000.320129,564.200134 1003.523376,564.418335 1006.535034,565.243591 
	C1011.464355,566.594299 1015.160095,569.453125 1016.018921,574.974182 
	C1016.888367,580.563721 1015.381775,585.160522 1010.672241,588.530579 
	C1003.176331,593.894775 994.570801,594.280273 985.838196,594.057983 
	C984.179077,594.015808 982.524292,593.800354 980.476685,593.516113 
M981.643616,583.487854 
	C987.080444,583.535400 992.570251,584.029358 997.926025,583.393799 
	C999.858704,583.164429 1001.469666,580.224121 1003.227478,578.520935 
	C1001.214905,577.211060 999.334961,575.129639 997.161377,574.755798 
	C992.932617,574.028625 988.524048,573.985596 984.221436,574.224976 
	C982.460449,574.322815 980.219482,575.477295 979.191895,576.880005 
	C977.506409,579.180725 978.162720,581.623413 981.643616,583.487854 
M985.654114,548.340576 
	C991.895264,550.188904 995.835144,549.217041 997.719666,545.055725 
	C999.404358,541.335510 998.912903,537.861633 995.339417,535.405151 
	C991.526550,532.783997 985.560913,533.498535 983.059326,536.709961 
	C980.230591,540.341309 980.891968,544.325012 985.654114,548.340576 
z"/>
<path fill="#F8F7F8" opacity="1.000000" stroke="none" 
	d="
M705.675293,567.667969 
	C691.912720,579.906311 667.641907,577.419250 655.291687,562.680908 
	C658.272766,559.852051 661.262512,557.015015 664.446411,553.993713 
	C670.820496,562.309998 679.381897,564.407471 689.207947,562.449646 
	C692.834290,561.727112 695.875122,560.065125 696.157959,555.777832 
	C696.446655,551.403320 693.486389,549.585449 689.972961,548.465637 
	C684.123291,546.601196 678.147217,545.112610 672.356873,543.086975 
	C661.832581,539.405090 657.406189,533.091125 658.189514,523.498169 
	C658.952515,514.155518 665.361328,507.586029 675.689087,505.873108 
	C687.631042,503.892517 698.559509,505.598938 707.099365,515.199951 
	C707.428894,515.570374 707.741943,515.965027 707.998413,516.387390 
	C708.165771,516.663208 708.216797,517.009583 708.377747,517.500671 
	C705.408020,520.022766 702.388062,522.587524 699.066345,525.408508 
	C693.793335,518.656982 687.018127,515.365784 678.652283,518.018188 
	C676.258850,518.777100 673.497986,521.302307 672.743164,523.616882 
	C671.616516,527.071594 674.364075,529.414795 677.722473,530.427368 
	C684.064270,532.339600 690.524719,533.899597 696.772156,536.075745 
	C711.598999,541.240295 715.516602,554.955566 705.675293,567.667969 
z"/>
<path fill="#F6F6F6" opacity="1.000000" stroke="none" 
	d="
M975.704712,420.135437 
	C981.744324,422.975098 984.578247,427.678619 984.693481,433.758209 
	C984.903076,444.814392 984.752991,455.877380 984.752991,467.196869 
	C981.666443,467.196869 977.400818,467.196869 972.863159,467.196869 
	C972.485291,465.819580 972.108582,464.446686 971.638000,462.731537 
	C965.851685,467.241089 959.679199,469.978729 952.258179,468.333771 
	C946.184387,466.987427 941.942200,463.131134 940.987915,457.827545 
	C939.789368,451.166351 942.083557,444.873596 948.260437,442.386932 
	C954.627441,439.823669 961.614136,438.795013 968.338257,437.129364 
	C969.122742,436.935028 969.961426,436.959564 972.306824,436.737823 
	C970.572693,433.911011 969.755188,430.696320 967.866638,429.837860 
	C961.060913,426.744354 955.418945,430.095673 950.075806,434.684357 
	C947.428711,432.425842 944.807007,430.188995 942.198303,427.963226 
	C948.980042,418.833069 962.831299,415.574371 975.704712,420.135437 
M969.705322,445.119904 
	C965.866943,446.119141 961.711304,446.526245 958.313232,448.347137 
	C956.379822,449.383118 954.600098,452.830627 954.801331,455.002197 
	C954.942993,456.531036 958.424011,458.660217 960.607361,458.924469 
	C968.042542,459.824341 972.166870,453.838074 969.705322,445.119904 
z"/>
<path fill="#F7F7F7" opacity="1.000000" stroke="none" 
	d="
M758.539001,534.591187 
	C760.173828,540.738464 761.591248,546.581116 763.215637,553.276733 
	C750.936951,553.276733 740.211487,553.276733 729.415894,553.276733 
	C731.472107,566.256897 741.565430,568.155090 754.623230,558.416138 
	C756.879211,560.990051 759.145020,563.575134 761.407043,566.156006 
	C749.500061,578.822876 728.725037,578.412781 719.548767,565.384949 
	C712.972595,556.048584 714.436951,539.049622 722.501648,531.105652 
	C730.604675,523.123962 744.546143,522.196167 753.630371,529.195557 
	C755.432129,530.583740 756.769897,532.573975 758.539001,534.591187 
M730.255432,541.388489 
	C730.117859,542.508972 729.980347,543.629395 729.832458,544.833618 
	C736.302795,544.833618 742.554626,544.833618 748.888123,544.833618 
	C749.183228,539.847168 746.948364,536.688660 742.540833,535.201843 
	C737.725708,533.577515 734.163940,535.309082 730.255432,541.388489 
z"/>
<path fill="#F6F6F6" opacity="1.000000" stroke="none" 
	d="
M769.739624,566.152466 
	C769.206604,558.494263 768.654358,551.215698 768.400940,543.926758 
	C768.198547,538.106812 768.360046,532.274170 768.360046,526.078613 
	C773.010620,526.078613 777.263855,526.078613 782.059814,526.078613 
	C782.059814,534.925293 782.060730,544.033264 782.059570,553.141296 
	C782.058655,560.493103 784.437866,563.874084 789.576538,563.817688 
	C795.554565,563.752075 800.319214,558.733521 800.317627,552.510193 
	C800.315430,543.849609 800.317078,535.189087 800.317078,526.124756 
	C804.823059,526.124756 809.202087,526.124756 813.814331,526.124756 
	C813.814331,541.876038 813.814331,557.668457 813.814331,573.763367 
	C809.659485,573.763367 805.427551,573.763367 801.031738,573.763367 
	C800.824890,572.010559 800.634216,570.394775 800.316040,567.698303 
	C793.949646,574.712097 786.359436,576.897339 778.301086,574.239258 
	C774.995544,573.148987 772.638062,569.184570 769.739624,566.152466 
z"/>
<path fill="#F8F7F8" opacity="1.000000" stroke="none" 
	d="
M1183.223145,572.261841 
	C1166.672729,579.386292 1150.856689,572.943665 1146.546387,557.637817 
	C1143.186646,545.707520 1147.724854,533.614990 1157.757080,527.765503 
	C1167.429199,522.125916 1181.220703,523.796021 1188.712891,531.514038 
	C1196.830322,539.876343 1198.495605,553.756470 1192.014160,563.829773 
	C1189.936768,567.058411 1186.410034,569.354614 1183.223145,572.261841 
M1167.328857,536.241821 
	C1157.459595,539.188293 1157.217651,554.733765 1162.820312,560.731628 
	C1166.281494,564.436829 1172.818237,565.062988 1177.000122,562.132385 
	C1181.579102,558.923523 1183.432861,549.685547 1180.870117,542.846069 
	C1178.844604,537.440308 1175.216187,535.496338 1167.328857,536.241821 
z"/>
<path fill="#F8F7F8" opacity="1.000000" stroke="none" 
	d="
M943.381592,524.786255 
	C956.935669,526.776550 963.268188,536.268372 962.224487,553.061340 
	C951.713013,553.061340 941.149353,553.061340 930.307434,553.061340 
	C930.303650,558.488525 932.796387,561.853760 937.071289,563.483154 
	C943.875366,566.076355 949.669739,563.536438 954.769165,558.888916 
	C957.086426,561.457031 959.387146,564.006836 961.736450,566.610413 
	C954.388977,575.270264 939.695068,578.156921 928.847229,572.558655 
	C918.379272,567.156494 913.761230,554.612549 917.411621,541.496155 
	C920.601807,530.033264 929.743835,524.029114 943.381592,524.786255 
M946.078430,545.022217 
	C947.226990,544.962708 948.375610,544.903198 949.530762,544.843384 
	C948.871948,537.839905 946.454834,535.158020 940.697266,534.902405 
	C934.992493,534.649109 931.727417,537.709656 930.272949,545.018555 
	C935.289246,545.018555 940.228638,545.018555 946.078430,545.022217 
z"/>
<path fill="#F7F7F7" opacity="1.000000" stroke="none" 
	d="
M1035.163574,526.000977 
	C1053.386841,521.942200 1065.938354,529.336243 1068.982910,545.586853 
	C1072.284058,563.207458 1058.206543,577.626892 1040.389404,574.874878 
	C1027.943970,572.952576 1021.147400,565.998352 1019.273438,553.269287 
	C1017.517456,541.341980 1022.996582,531.747620 1035.163574,526.000977 
M1055.164429,544.677063 
	C1052.735107,537.896606 1048.620972,534.926147 1042.758911,535.720398 
	C1037.525879,536.429382 1033.639160,541.029541 1033.063110,547.357605 
	C1032.898804,549.163330 1032.846558,551.022217 1033.078125,552.813416 
	C1033.990112,559.868896 1038.054565,563.984009 1044.080200,564.147400 
	C1049.875977,564.304626 1053.905029,560.751892 1055.214844,553.724426 
	C1055.709229,551.071899 1055.240479,548.239868 1055.164429,544.677063 
z"/>
<path fill="#F8F8F8" opacity="1.000000" stroke="none" 
	d="
M851.712097,465.799683 
	C835.103943,472.688171 819.543030,466.621307 815.051270,451.815674 
	C811.179871,439.054321 817.098633,424.999603 828.355530,420.223724 
	C840.902100,414.900665 855.335876,419.839294 861.430115,431.540497 
	C867.662170,443.506409 863.704956,457.859711 851.712097,465.799683 
M845.719849,455.341339 
	C850.843140,449.525391 852.297485,441.414398 848.106812,435.184479 
	C846.242188,432.412567 842.315247,430.139404 838.966064,429.491241 
	C835.218323,428.765930 831.153748,430.833099 829.927124,434.995331 
	C828.788574,438.858429 827.986511,443.072540 828.258789,447.048340 
	C828.870300,455.974487 837.809998,460.996338 845.719849,455.341339 
z"/>
<path fill="#F7F7F7" opacity="1.000000" stroke="none" 
	d="
M755.954529,446.938782 
	C747.974243,446.937195 740.488342,446.937195 732.748169,446.937195 
	C732.363831,452.064575 734.841187,455.061707 738.763000,457.056458 
	C744.596191,460.023376 750.341736,458.629944 757.095398,452.620239 
	C759.540039,454.933105 762.018738,457.278198 764.496338,459.622284 
	C757.484375,468.002075 744.673645,471.157715 733.614685,467.292053 
	C724.330200,464.046661 718.262695,454.999847 718.245361,444.376068 
	C718.226501,432.760895 724.319946,423.418640 734.305786,419.752869 
	C749.454346,414.191895 763.662842,423.780426 764.863464,440.412567 
	C765.005798,442.384369 764.882751,444.375366 764.882751,446.940399 
	C761.967346,446.940399 759.208191,446.940399 755.954529,446.938782 
M749.473206,431.046173 
	C740.795166,425.928009 733.489258,429.292480 732.915833,438.743408 
	C739.220276,438.743408 745.519287,438.743408 752.642151,438.743408 
	C751.660645,436.097839 750.829346,433.857330 749.473206,431.046173 
z"/>
<path fill="#F6F6F6" opacity="1.000000" stroke="none" 
	d="
M793.784180,458.125061 
	C795.151306,456.643433 797.192505,454.869781 796.861084,453.976837 
	C796.297363,452.458038 794.422058,450.968933 792.775391,450.398407 
	C788.540588,448.931213 784.062256,448.176025 779.803040,446.767975 
	C772.783386,444.447357 769.697815,440.289459 769.601135,433.663025 
	C769.503662,426.983795 772.823486,422.414459 779.675720,419.796234 
	C789.660095,415.981262 800.540771,418.434998 807.863525,426.019684 
	C805.692139,428.159058 803.510620,430.308411 801.204956,432.580078 
	C798.711792,431.444519 795.706726,429.733490 792.481079,428.735413 
	C790.553955,428.139191 788.150330,428.230133 786.206909,428.821198 
	C784.765259,429.259674 782.781494,430.976349 782.751587,432.166656 
	C782.719360,433.448608 784.432434,435.434143 785.823486,435.968353 
	C789.992249,437.569214 794.403931,438.522675 798.668884,439.890900 
	C806.516785,442.408600 809.996460,446.559814 810.004395,453.171143 
	C810.012146,459.586151 805.789917,465.166809 798.591187,467.257843 
	C786.922607,470.647308 776.283630,468.473389 766.834045,460.516083 
	C769.692261,457.976685 772.408691,455.563232 775.436584,452.873108 
	C779.956787,456.934814 785.856628,460.258789 793.784180,458.125061 
z"/>
<path fill="#F6F6F6" opacity="1.000000" stroke="none" 
	d="
M1109.901123,541.674133 
	C1108.785767,541.007080 1107.969238,540.206055 1107.198730,539.363098 
	C1104.117676,535.992065 1100.373291,534.804749 1095.931274,535.920227 
	C1091.534912,537.024109 1089.175171,540.279846 1088.267090,544.311157 
	C1087.624512,547.164001 1087.772095,550.295776 1088.100098,553.243713 
	C1088.659790,558.273682 1091.263184,562.031860 1096.339966,563.450378 
	C1101.377197,564.857849 1105.454224,563.016235 1108.751953,559.154724 
	C1109.158569,558.678528 1109.566284,558.203247 1110.232056,557.425171 
	C1113.373169,559.876282 1116.333862,562.186646 1119.280273,564.485901 
	C1112.389648,574.329895 1100.225586,577.773254 1088.501343,573.431641 
	C1078.777710,569.830872 1072.915283,559.173950 1073.961304,546.999573 
	C1074.950195,535.490540 1082.479126,527.060669 1093.024536,524.945496 
	C1102.835205,522.977661 1115.605469,527.170959 1118.452393,536.432678 
	C1115.796997,538.074158 1113.009033,539.797546 1109.901123,541.674133 
z"/>
<path fill="#F6F6F6" opacity="1.000000" stroke="none" 
	d="
M923.314331,463.500214 
	C922.696411,466.504730 921.462708,467.562134 918.452209,467.532745 
	C907.668579,467.427460 907.704712,467.572632 903.861267,457.321106 
	C899.201904,444.893188 894.470581,432.492279 889.567505,419.543823 
	C894.350708,419.543823 898.715271,419.543823 903.602600,419.543823 
	C906.990173,429.633270 910.507751,440.110138 914.025391,450.587006 
	C914.469299,450.669678 914.913147,450.752380 915.356995,450.835052 
	C918.959290,440.334412 922.561523,429.833740 926.120056,419.460571 
	C930.726135,419.460571 935.137512,419.460571 940.058716,419.460571 
	C934.418152,434.305206 928.940063,448.722260 923.314331,463.500214 
z"/>
<path fill="#F6F6F6" opacity="1.000000" stroke="none" 
	d="
M884.870789,448.999176 
	C884.872803,455.302734 884.872803,461.106506 884.872803,467.213745 
	C880.229065,467.213745 875.834839,467.213745 871.262207,467.213745 
	C871.262207,444.755157 871.262207,422.521667 871.262207,399.945740 
	C875.763611,399.945740 880.152710,399.945740 884.868774,399.945740 
	C884.868774,416.285858 884.868774,432.392609 884.870789,448.999176 
z"/>
<path fill="#FCFCFC" opacity="1.000000" stroke="none" 
	d="
M1138.340576,546.000488 
	C1138.338501,555.479065 1138.338501,564.457703 1138.338501,573.778381 
	C1133.687500,573.778381 1129.483765,573.778381 1125.027100,573.778381 
	C1125.027100,557.811401 1125.027100,542.067322 1125.027100,525.955383 
	C1129.348999,525.955383 1133.451050,525.955383 1138.342651,525.955383 
	C1138.342651,532.323486 1138.342651,538.911987 1138.340576,546.000488 
z"/>
<path fill="#F6F6F6" opacity="1.000000" stroke="none" 
	d="
M1055.145264,512.130615 
	C1050.260986,518.460266 1044.474243,521.244629 1036.796143,518.667236 
	C1040.176758,514.086121 1043.503052,509.446442 1046.973145,504.916992 
	C1049.855469,501.154785 1057.161011,502.476715 1060.545288,507.374878 
	C1058.838989,508.871887 1057.119507,510.380341 1055.145264,512.130615 
z"/>
<path fill="#F6F6F6" opacity="1.000000" stroke="none" 
	d="
M1124.231567,516.865601 
	C1124.113037,516.133057 1124.058960,515.803589 1124.030029,515.471802 
	C1123.247681,506.512756 1127.687744,502.921539 1136.188721,506.093353 
	C1137.653442,506.639832 1139.175049,509.411896 1139.117920,511.103516 
	C1139.031250,513.668640 1137.818359,518.227112 1136.673462,518.358398 
	C1132.646118,518.819946 1128.443726,517.753906 1124.231567,516.865601 
z"/>
<path fill="#0A0909" opacity="1.000000" stroke="none" 
	d="
M517.231201,515.999756 
	C517.230469,522.802856 517.230469,529.106018 517.230469,535.755920 
	C489.527313,535.755920 462.157074,535.755920 434.399841,535.755920 
	C434.399841,509.311768 434.399841,482.942413 434.399841,456.170837 
	C461.851410,456.170837 489.197510,456.170837 517.231873,456.170837 
	C517.231873,476.016510 517.231873,495.758179 517.231201,515.999756 
z"/>
<path fill="#151515" opacity="1.000000" stroke="none" 
	d="
M673.199829,424.800171 
	C673.197815,420.517365 673.197815,416.708618 673.197815,411.944122 
	C680.111816,412.320099 686.721008,412.205261 693.161865,413.190399 
	C697.733398,413.889648 699.256165,417.847229 699.038025,422.313507 
	C698.802979,427.125549 695.853760,429.808380 691.498047,430.160065 
	C685.590149,430.637054 679.614868,430.278809 673.201843,430.278809 
	C673.201843,428.495148 673.201843,426.884705 673.199829,424.800171 
z"/>
<path fill="#151515" opacity="1.000000" stroke="none" 
	d="
M981.287109,583.288330 
	C978.162720,581.623413 977.506409,579.180725 979.191895,576.880005 
	C980.219482,575.477295 982.460449,574.322815 984.221436,574.224976 
	C988.524048,573.985596 992.932617,574.028625 997.161377,574.755798 
	C999.334961,575.129639 1001.214905,577.211060 1003.227478,578.520935 
	C1001.469666,580.224121 999.858704,583.164429 997.926025,583.393799 
	C992.570251,584.029358 987.080444,583.535400 981.287109,583.288330 
z"/>
<path fill="#10100F" opacity="1.000000" stroke="none" 
	d="
M985.291992,548.158936 
	C980.891968,544.325012 980.230591,540.341309 983.059326,536.709961 
	C985.560913,533.498535 991.526550,532.783997 995.339417,535.405151 
	C998.912903,537.861633 999.404358,541.335510 997.719666,545.055725 
	C995.835144,549.217041 991.895264,550.188904 985.291992,548.158936 
z"/>
<path fill="#151515" opacity="1.000000" stroke="none" 
	d="
M970.141846,445.126831 
	C972.166870,453.838074 968.042542,459.824341 960.607361,458.924469 
	C958.424011,458.660217 954.942993,456.531036 954.801331,455.002197 
	C954.600098,452.830627 956.379822,449.383118 958.313232,448.347137 
	C961.711304,446.526245 965.866943,446.119141 970.141846,445.126831 
z"/>
<path fill="#10100F" opacity="1.000000" stroke="none" 
	d="
M730.426575,541.009033 
	C734.163940,535.309082 737.725708,533.577515 742.540833,535.201843 
	C746.948364,536.688660 749.183228,539.847168 748.888123,544.833618 
	C742.554626,544.833618 736.302795,544.833618 729.832458,544.833618 
	C729.980347,543.629395 730.117859,542.508972 730.426575,541.009033 
z"/>
<path fill="#10100F" opacity="1.000000" stroke="none" 
	d="
M1167.723633,536.127991 
	C1175.216187,535.496338 1178.844604,537.440308 1180.870117,542.846069 
	C1183.432861,549.685547 1181.579102,558.923523 1177.000122,562.132385 
	C1172.818237,565.062988 1166.281494,564.436829 1162.820312,560.731628 
	C1157.217651,554.733765 1157.459595,539.188293 1167.723633,536.127991 
z"/>
<path fill="#151515" opacity="1.000000" stroke="none" 
	d="
M945.623291,545.020386 
	C940.228638,545.018555 935.289246,545.018555 930.272949,545.018555 
	C931.727417,537.709656 934.992493,534.649109 940.697266,534.902405 
	C946.454834,535.158020 948.871948,537.839905 949.530762,544.843384 
	C948.375610,544.903198 947.226990,544.962708 945.623291,545.020386 
z"/>
<path fill="#10100F" opacity="1.000000" stroke="none" 
	d="
M1055.187500,545.083374 
	C1055.240479,548.239868 1055.709229,551.071899 1055.214844,553.724426 
	C1053.905029,560.751892 1049.875977,564.304626 1044.080200,564.147400 
	C1038.054565,563.984009 1033.990112,559.868896 1033.078125,552.813416 
	C1032.846558,551.022217 1032.898804,549.163330 1033.063110,547.357605 
	C1033.639160,541.029541 1037.525879,536.429382 1042.758911,535.720398 
	C1048.620972,534.926147 1052.735107,537.896606 1055.187500,545.083374 
z"/>
<path fill="#10100F" opacity="1.000000" stroke="none" 
	d="
M845.423096,455.581909 
	C837.809998,460.996338 828.870300,455.974487 828.258789,447.048340 
	C827.986511,443.072540 828.788574,438.858429 829.927124,434.995331 
	C831.153748,430.833099 835.218323,428.765930 838.966064,429.491241 
	C842.315247,430.139404 846.242188,432.412567 848.106812,435.184479 
	C852.297485,441.414398 850.843140,449.525391 845.423096,455.581909 
z"/>
<path fill="#151515" opacity="1.000000" stroke="none" 
	d="
M749.735657,431.331482 
	C750.829346,433.857330 751.660645,436.097839 752.642151,438.743408 
	C745.519287,438.743408 739.220276,438.743408 732.915833,438.743408 
	C733.489258,429.292480 740.795166,425.928009 749.735657,431.331482 
z"/>
</svg>